#define rbstubble_width 12
#define rbstubble_height 12
static unsigned char rbstubble_bits[] = {
   0x3f, 0x00, 0x3f, 0x00, 0x3f, 0x00, 0x3f, 0x00, 0x3f, 0x00, 0x3f, 0x00,
   0xc0, 0x0f, 0xc0, 0x0f, 0xc0, 0x0f, 0xc0, 0x0f, 0xc0, 0x0f, 0xc0, 0x0f};
