#define rbstipple_width 12
#define rbstipple_height 12
static unsigned char rbstipple_bits[] = {
   0xc0, 0xff, 0xc0, 0xff, 0xc0, 0xff, 0xc0, 0xff, 0xc0, 0xff, 0xc0, 0xff,
   0x3f, 0xf0, 0x3f, 0xf0, 0x3f, 0xf0, 0x3f, 0xf0, 0x3f, 0xf0, 0x3f, 0xf0};
